<svg width="22" height="22" viewBox="0 0 22 22" fill="none" xmlns="http://www.w3.org/2000/svg">
<g id="Group 307">
<path id="Vector" d="M11 21C8.34784 21 5.8043 19.9464 3.92893 18.0711C2.05357 16.1957 1 13.6522 1 11C1 8.34784 2.05357 5.8043 3.92893 3.92893C5.8043 2.05357 8.34784 1 11 1C16.5222 1 21 4.98 21 9.88889C21 11.0667 20.4733 12.1978 19.5356 13.0311C18.5978 13.8644 17.3256 14.3333 16 14.3333H13.2222C12.7265 14.3253 12.2424 14.4834 11.8468 14.7822C11.4512 15.0811 11.167 15.5036 11.0392 15.9827C10.9115 16.4617 10.9476 16.9697 11.1418 17.4259C11.3361 17.882 11.6772 18.2601 12.1111 18.5C12.333 18.7047 12.4851 18.9738 12.5462 19.2694C12.6072 19.565 12.5741 19.8724 12.4515 20.1482C12.3289 20.4241 12.123 20.6546 11.8626 20.8073C11.6023 20.9601 11.3006 21.0275 11 21Z" stroke="#333333" stroke-width="1.8" stroke-linecap="round" stroke-linejoin="round"/>
<path id="Vector_2" d="M6 9.33334C6 9.62803 6.11706 9.91064 6.32544 10.119C6.53381 10.3274 6.81643 10.4445 7.11111 10.4445C7.4058 10.4445 7.68841 10.3274 7.89679 10.119C8.10516 9.91064 8.22222 9.62803 8.22222 9.33334C8.22222 9.03866 8.10516 8.75604 7.89679 8.54767C7.68841 8.33929 7.4058 8.22223 7.11111 8.22223C6.81643 8.22223 6.53381 8.33929 6.32544 8.54767C6.11706 8.75604 6 9.03866 6 9.33334Z" stroke="#333333" stroke-width="1.8" stroke-linecap="round" stroke-linejoin="round"/>
<path id="Vector_3" d="M10.4443 6.00003C10.4443 6.29471 10.5614 6.57733 10.7698 6.7857C10.9781 6.99407 11.2608 7.11114 11.5554 7.11114C11.8501 7.11114 12.1327 6.99407 12.3411 6.7857C12.5495 6.57733 12.6666 6.29471 12.6666 6.00003C12.6666 5.70534 12.5495 5.42273 12.3411 5.21435C12.1327 5.00598 11.8501 4.88892 11.5554 4.88892C11.2608 4.88892 10.9781 5.00598 10.7698 5.21435C10.5614 5.42273 10.4443 5.70534 10.4443 6.00003Z" stroke="#333333" stroke-width="1.8" stroke-linecap="round" stroke-linejoin="round"/>
<path id="Vector_4" d="M14.8887 9.33334C14.8887 9.62803 15.0057 9.91064 15.2141 10.119C15.4225 10.3274 15.7051 10.4445 15.9998 10.4445C16.2945 10.4445 16.5771 10.3274 16.7855 10.119C16.9938 9.91064 17.1109 9.62803 17.1109 9.33334C17.1109 9.03866 16.9938 8.75604 16.7855 8.54767C16.5771 8.33929 16.2945 8.22223 15.9998 8.22223C15.7051 8.22223 15.4225 8.33929 15.2141 8.54767C15.0057 8.75604 14.8887 9.03866 14.8887 9.33334Z" stroke="#333333" stroke-width="1.8" stroke-linecap="round" stroke-linejoin="round"/>
</g>
</svg>
