<svg width="22" height="22" viewBox="0 0 22 22" fill="none" xmlns="http://www.w3.org/2000/svg">
<g id="Group 305">
<path id="Vector" d="M1 3.5C1 2.83696 1.26339 2.20107 1.73223 1.73223C2.20107 1.26339 2.83696 1 3.5 1H6C6.66304 1 7.29893 1.26339 7.76777 1.73223C8.23661 2.20107 8.5 2.83696 8.5 3.5V4.75C8.5 5.41304 8.23661 6.04893 7.76777 6.51777C7.29893 6.98661 6.66304 7.25 6 7.25H3.5C2.83696 7.25 2.20107 6.98661 1.73223 6.51777C1.26339 6.04893 1 5.41304 1 4.75V3.5Z" stroke="#333333" stroke-width="1.8" stroke-linecap="round" stroke-linejoin="round"/>
<path id="Vector_2" d="M1 14.75C1 14.087 1.26339 13.4511 1.73223 12.9822C2.20107 12.5134 2.83696 12.25 3.5 12.25H6C6.66304 12.25 7.29893 12.5134 7.76777 12.9822C8.23661 13.4511 8.5 14.087 8.5 14.75V18.5C8.5 19.163 8.23661 19.7989 7.76777 20.2678C7.29893 20.7366 6.66304 21 6 21H3.5C2.83696 21 2.20107 20.7366 1.73223 20.2678C1.26339 19.7989 1 19.163 1 18.5V14.75Z" stroke="#333333" stroke-width="1.8" stroke-linecap="round" stroke-linejoin="round"/>
<path id="Vector_3" d="M13.5 3.5C13.5 2.83696 13.7634 2.20107 14.2322 1.73223C14.7011 1.26339 15.337 1 16 1H18.5C19.163 1 19.7989 1.26339 20.2678 1.73223C20.7366 2.20107 21 2.83696 21 3.5V7.25C21 7.91304 20.7366 8.54893 20.2678 9.01777C19.7989 9.48661 19.163 9.75 18.5 9.75H16C15.337 9.75 14.7011 9.48661 14.2322 9.01777C13.7634 8.54893 13.5 7.91304 13.5 7.25V3.5Z" stroke="#333333" stroke-width="1.8" stroke-linecap="round" stroke-linejoin="round"/>
<path id="Vector_4" d="M13.5 17.25C13.5 16.587 13.7634 15.9511 14.2322 15.4822C14.7011 15.0134 15.337 14.75 16 14.75H18.5C19.163 14.75 19.7989 15.0134 20.2678 15.4822C20.7366 15.9511 21 16.587 21 17.25V18.5C21 19.163 20.7366 19.7989 20.2678 20.2678C19.7989 20.7366 19.163 21 18.5 21H16C15.337 21 14.7011 20.7366 14.2322 20.2678C13.7634 19.7989 13.5 19.163 13.5 18.5V17.25Z" stroke="#333333" stroke-width="1.8" stroke-linecap="round" stroke-linejoin="round"/>
</g>
</svg>
