<svg width="20" height="20" viewBox="0 0 20 20" fill="none" xmlns="http://www.w3.org/2000/svg">
<path d="M7.4278 19C5.93923 18.5376 4.59108 17.6821 3.5146 16.5169C3.86095 16.0895 4.07686 15.5643 4.1347 15.0085C4.19253 14.4528 4.08966 13.8917 3.83925 13.3971C3.58884 12.9025 3.20228 12.4969 2.72903 12.2322C2.25578 11.9674 1.71737 11.8556 1.1827 11.911C1.06089 11.2903 0.999683 10.6584 1 10.0248C1 9.04635 1.144 8.10253 1.4122 7.21582H1.45C1.90889 7.21598 2.36025 7.09445 2.76145 6.86271C3.16265 6.63097 3.50047 6.29667 3.74299 5.89138C3.98551 5.48609 4.12474 5.02317 4.14753 4.54635C4.17033 4.06952 4.07593 3.59452 3.87325 3.1662C4.92832 2.14411 6.20428 1.40114 7.5934 1C7.81947 1.4618 8.16393 1.84953 8.58867 2.1203C9.01341 2.39106 9.50186 2.5343 10 2.53418C10.4981 2.5343 10.9866 2.39106 11.4113 2.1203C11.8361 1.84953 12.1805 1.4618 12.4066 1C13.7957 1.40114 15.0717 2.14411 16.1267 3.1662C15.9226 3.59752 15.8283 4.07615 15.8528 4.55625C15.8773 5.03636 16.0199 5.50188 16.2669 5.90825C16.5138 6.31463 16.8569 6.64825 17.2633 6.87719C17.6697 7.10614 18.1257 7.22273 18.5878 7.21582C18.8618 8.12487 19.0008 9.07211 19 10.0248C19 10.6709 18.937 11.302 18.8173 11.911C18.2826 11.8556 17.7442 11.9674 17.271 12.2322C16.7977 12.4969 16.4112 12.9025 16.1607 13.3971C15.9103 13.8917 15.8075 14.4528 15.8653 15.0085C15.9231 15.5643 16.139 16.0895 16.4854 16.5169C15.4089 17.6821 14.0608 18.5376 12.5722 19C12.3974 18.4332 12.0541 17.9388 11.5918 17.588C11.1296 17.2372 10.5722 17.0482 10 17.0482C9.42783 17.0482 8.87043 17.2372 8.40815 17.588C7.94588 17.9388 7.6026 18.4332 7.4278 19Z" stroke="#87888C" stroke-width="1.8" stroke-linejoin="round"/>
<path d="M10.0006 13.3013C10.4142 13.3013 10.8239 13.2165 11.206 13.0518C11.5882 12.8871 11.9355 12.6457 12.228 12.3414C12.5205 12.0371 12.7525 11.6758 12.9108 11.2782C13.0691 10.8806 13.1506 10.4545 13.1506 10.0241C13.1506 9.59376 13.0691 9.16761 12.9108 8.77001C12.7525 8.3724 12.5205 8.01113 12.228 7.70682C11.9355 7.40251 11.5882 7.16111 11.206 6.99642C10.8239 6.83173 10.4142 6.74696 10.0006 6.74696C9.16515 6.74696 8.36394 7.09223 7.7732 7.70682C7.18246 8.32141 6.85059 9.15496 6.85059 10.0241C6.85059 10.8933 7.18246 11.7268 7.7732 12.3414C8.36394 12.956 9.16515 13.3013 10.0006 13.3013V13.3013Z" stroke="#87888C" stroke-width="1.8" stroke-linejoin="round"/>
</svg>
