<svg width="32" height="32" viewBox="0 0 32 32" fill="none" xmlns="http://www.w3.org/2000/svg">
<g id="Group 275">
<path id="Vector" d="M16 31C17.9698 31 19.9204 30.612 21.7403 29.8582C23.5601 29.1044 25.2137 27.9995 26.6066 26.6066C27.9995 25.2137 29.1044 23.5601 29.8582 21.7403C30.612 19.9204 31 17.9698 31 16C31 14.0302 30.612 12.0796 29.8582 10.2597C29.1044 8.43986 27.9995 6.78628 26.6066 5.3934C25.2137 4.00052 23.5601 2.89563 21.7403 2.14181C19.9204 1.38799 17.9698 1 16 1C12.0218 1 8.20644 2.58035 5.3934 5.3934C2.58035 8.20644 1 12.0218 1 16C1 19.9782 2.58035 23.7936 5.3934 26.6066C8.20644 29.4196 12.0218 31 16 31Z" stroke="black" stroke-width="1.8" stroke-linecap="round" stroke-linejoin="round"/>
<path id="Vector_2" d="M9.33301 16L15.9997 22.6667" stroke="black" stroke-width="1.8" stroke-linecap="round" stroke-linejoin="round"/>
<path id="Vector_3" d="M9.33301 16H22.6663" stroke="black" stroke-width="1.8" stroke-linecap="round" stroke-linejoin="round"/>
<path id="Vector_4" d="M15.9997 9.33333L9.33301 16" stroke="black" stroke-width="1.8" stroke-linecap="round" stroke-linejoin="round"/>
</g>
</svg>
