<svg width="23" height="26" viewBox="0 0 23 26" fill="none" xmlns="http://www.w3.org/2000/svg">
<path d="M22.167 18.4549L19.7115 13.9217V9.20167C19.7115 4.48911 15.8776 0.655151 11.165 0.655151C6.45244 0.655151 2.61848 4.48911 2.61848 9.20167V13.9217L0.162927 18.4549C0.0515696 18.6604 -0.00447677 18.8914 0.000279357 19.1251C0.00503549 19.3588 0.0704309 19.5873 0.190058 19.7882C0.309685 19.989 0.479439 20.1554 0.682688 20.2709C0.885937 20.3864 1.11571 20.4471 1.34949 20.4471H6.23759C6.22396 20.5966 6.21707 20.7467 6.21696 20.8969C6.21696 22.2092 6.73826 23.4677 7.66619 24.3957C8.59412 25.3236 9.85266 25.8449 11.1649 25.8449C12.4772 25.8449 13.7358 25.3236 14.6637 24.3957C15.5916 23.4677 16.1129 22.2092 16.1129 20.8969C16.1129 20.7451 16.1057 20.5953 16.0923 20.4471H20.9804C21.2142 20.4471 21.4439 20.3863 21.6471 20.2708C21.8503 20.1553 22.0201 19.989 22.1397 19.7881C22.2593 19.5873 22.3247 19.3588 22.3294 19.1251C22.3342 18.8914 22.2783 18.6605 22.167 18.4549ZM14.3137 20.8969C14.3141 21.3296 14.2252 21.7578 14.0527 22.1546C13.8803 22.5515 13.6278 22.9085 13.3112 23.2034C12.9946 23.4984 12.6206 23.7249 12.2125 23.8688C11.8045 24.0128 11.3711 24.0711 10.9395 24.0401C10.5079 24.0091 10.0873 23.8895 9.70401 23.6887C9.3207 23.488 8.98288 23.2103 8.71165 22.8732C8.44041 22.536 8.24158 22.1466 8.12756 21.7292C8.01354 21.3118 7.98678 20.8753 8.04895 20.4471H14.281C14.3026 20.5961 14.3135 20.7464 14.3137 20.8969ZM2.10467 18.6478L4.41775 14.3777V9.20167C4.41775 7.41219 5.12862 5.696 6.39397 4.43064C7.65933 3.16529 9.37552 2.45442 11.165 2.45442C12.9545 2.45442 14.6707 3.16529 15.936 4.43064C17.2014 5.696 17.9123 7.41219 17.9123 9.20167V14.3777L20.2252 18.6478H2.10467Z" fill="black"/>
<circle cx="18" cy="5.15515" r="4.5" fill="#FF4D42"/>
</svg>
