<svg width="668" height="130" viewBox="0 0 668 130" fill="none" xmlns="http://www.w3.org/2000/svg">
<path d="M1.80762 196.5L8.94991 181.5L22.4409 196.5L28.7896 186.75L38.3127 196.5L47.8358 186.75L62.9139 196.5H82.7536L108.942 144.75L128.782 42L142.273 124.5L163.7 135L177.191 124.5L193.856 141L213.696 135L227.187 91.5L237.503 105.75L255.756 7.50003L264.485 31.5L286.706 48L300.197 35.25L308.133 14.25L317.656 35.25L337.496 48L358.922 117.75L374.001 59.25L391.46 42L409.712 59.25L423.203 31.5L431.933 48L455.74 63.75L482.722 59.25L502.562 35.25L531.131 124.5L550.971 135L567.636 105.75L577.159 124.5L597.793 135L606.522 162L619.219 129L640.646 105.75L653.344 135L665.248 91.5" stroke="#FF4D42" stroke-width="3.5" stroke-linecap="round"/>
<path d="M9.74376 183.25L0.220703 201.25L667.629 202.75V90.25L654.138 139.75L639.853 108.25L621.601 127.75L606.522 165.25L596.206 134.5L575.572 124L567.636 108.25L551.765 135.25L528.751 124L501.769 37.75L484.31 58.75L454.947 64L430.346 47.5L423.203 34.75L410.506 61L391.46 43L376.382 58L359.716 122.5L335.115 47.5L316.069 34.75L308.133 18.25L302.578 34L286.706 49L262.898 31L256.55 14.5L239.091 109L227.981 94.75L215.283 134.5L193.063 141.25L177.191 125.5L164.494 135.25L140.686 124L128.782 52.75L111.323 143.5L84.3411 196.75H62.1206L47.836 187L38.313 196.75L28.7899 188.5L22.4412 197.5L9.74376 183.25Z" fill="url(#paint0_linear_3_691)"/>
<defs>
<linearGradient id="paint0_linear_3_691" x1="329.18" y1="3.98913" x2="330.473" y2="204.181" gradientUnits="userSpaceOnUse">
<stop stop-color="#FF4D42"/>
<stop offset="1" stop-color="#FF4D42" stop-opacity="0"/>
</linearGradient>
</defs>
</svg>
