<svg width="20" height="20" viewBox="0 0 20 20" fill="none" xmlns="http://www.w3.org/2000/svg">
<path d="M8 8.105C8 7.95989 8.02858 7.8162 8.08411 7.68213C8.13964 7.54807 8.22104 7.42626 8.32365 7.32365C8.42626 7.22104 8.54807 7.13964 8.68213 7.08411C8.8162 7.02858 8.95989 7 9.105 7H10.895C11.0401 7 11.1838 7.02858 11.3179 7.08411C11.4519 7.13964 11.5737 7.22104 11.6764 7.32365C11.779 7.42626 11.8604 7.54807 11.9159 7.68213C11.9714 7.8162 12 7.95989 12 8.105V17.895C12 18.1881 11.8836 18.4691 11.6764 18.6764C11.4691 18.8836 11.1881 19 10.895 19H9.105C8.81194 19 8.53087 18.8836 8.32365 18.6764C8.11642 18.4691 8 18.1881 8 17.895V8.105Z" stroke="#87888C" stroke-width="1.8" stroke-linecap="round" stroke-linejoin="round"/>
<path d="M15 2.105C15 1.81194 15.1164 1.53087 15.3236 1.32365C15.5309 1.11642 15.8119 1 16.105 1H17.895C18.1881 1 18.4691 1.11642 18.6764 1.32365C18.8836 1.53087 19 1.81194 19 2.105V17.895C19 18.1881 18.8836 18.4691 18.6764 18.6764C18.4691 18.8836 18.1881 19 17.895 19H16.105C15.8119 19 15.5309 18.8836 15.3236 18.6764C15.1164 18.4691 15 18.1881 15 17.895V2.105Z" stroke="#87888C" stroke-width="1.8" stroke-linecap="round" stroke-linejoin="round"/>
<path d="M1 17C1 17.5304 1.21071 18.0391 1.58579 18.4142C1.96086 18.7893 2.46957 19 3 19C3.53043 19 4.03914 18.7893 4.41421 18.4142C4.78929 18.0391 5 17.5304 5 17C5 16.4696 4.78929 15.9609 4.41421 15.5858C4.03914 15.2107 3.53043 15 3 15C2.46957 15 1.96086 15.2107 1.58579 15.5858C1.21071 15.9609 1 16.4696 1 17Z" stroke="#87888C" stroke-width="1.8" stroke-linecap="round" stroke-linejoin="round"/>
</svg>
