<svg width="36" height="36" viewBox="0 0 36 36" fill="none" xmlns="http://www.w3.org/2000/svg">
<path d="M16.6327 18C21.4711 18 25.3934 14.3623 25.3934 9.875C25.3934 5.38769 21.4711 1.75 16.6327 1.75C11.7944 1.75 7.87207 5.38769 7.87207 9.875C7.87207 14.3623 11.7944 18 16.6327 18Z" stroke="#1890FF" stroke-width="2.25"/>
<path d="M23.6415 24.5H34.1543M25.3937 34.25H4.83413C4.33719 34.2501 3.84592 34.1521 3.39291 33.9627C2.9399 33.7732 2.53551 33.4966 2.20659 33.1511C1.87767 32.8057 1.63174 32.3993 1.48511 31.9589C1.33849 31.5185 1.29453 31.0543 1.35615 30.597L2.03948 25.5205C2.19839 24.3411 2.8164 23.2562 3.7773 22.4697C4.7382 21.6833 5.97578 21.2495 7.25733 21.25H7.87233L25.3937 34.25ZM28.8979 19.625V29.375V19.625Z" stroke="#1890FF" stroke-width="2.25" stroke-linecap="round" stroke-linejoin="round"/>
</svg>
