<svg width="32" height="37" viewBox="0 0 32 37" fill="none" xmlns="http://www.w3.org/2000/svg">
<path d="M24.3495 4.03972H28.7603C29.2329 4.03972 29.6862 4.21806 30.0204 4.5355C30.3547 4.85295 30.5424 5.2835 30.5424 5.73244V33.6623C30.5424 34.1113 30.3547 34.5418 30.0204 34.8593C29.6862 35.1767 29.2329 35.355 28.7603 35.355H3.81045C3.3378 35.355 2.88451 35.1767 2.55029 34.8593C2.21608 34.5418 2.02832 34.1113 2.02832 33.6623V5.73244C2.02832 5.2835 2.21608 4.85295 2.55029 4.5355C2.88451 4.21806 3.3378 4.03972 3.81045 4.03972H10.0479V6.5788H22.5228V4.03972H24.3495Z" stroke="#FFC107" stroke-width="2.25" stroke-linejoin="round"/>
<path d="M18.9595 14.1954L11.831 20.9671H20.7452L13.6131 27.738M10.0488 1.5H22.5237V6.57816H10.0488V1.5Z" stroke="#FFC107" stroke-width="2.25" stroke-linecap="round" stroke-linejoin="round"/>
</svg>
