<svg width="36" height="37" viewBox="0 0 36 37" fill="none" xmlns="http://www.w3.org/2000/svg">
<path d="M27.3766 9.36716H33.1262C33.474 9.36748 33.8092 9.4892 34.067 9.70874C34.3248 9.92827 34.4868 10.23 34.5215 10.5554L35.3778 18.6093H32.5535L31.8517 12.0078H27.3766V15.9687C27.3766 16.3189 27.2288 16.6547 26.9655 16.9023C26.7023 17.1499 26.3452 17.289 25.9729 17.289C25.6006 17.289 25.2436 17.1499 24.9804 16.9023C24.7171 16.6547 24.5692 16.3189 24.5692 15.9687V12.0078H13.3395V15.9687C13.3395 16.3189 13.1916 16.6547 12.9284 16.9023C12.6652 17.1499 12.3081 17.289 11.9358 17.289C11.5635 17.289 11.2065 17.1499 10.9433 16.9023C10.68 16.6547 10.5321 16.3189 10.5321 15.9687V12.0078H6.05428L3.80834 33.1328H18.9544V35.7734H2.25584C2.05978 35.7732 1.86594 35.7344 1.6868 35.6595C1.50765 35.5845 1.34719 35.4751 1.21574 35.3383C1.08429 35.2015 0.984775 35.0403 0.923599 34.8651C0.862423 34.6899 0.840946 34.5046 0.860552 34.3211L3.38723 10.5554C3.422 10.23 3.58397 9.92827 3.84175 9.70874C4.09953 9.4892 4.43477 9.36748 4.78252 9.36716H10.5321V8.44558C10.5321 3.86674 14.2828 0.124969 18.9544 0.124969C23.6259 0.124969 27.3766 3.86674 27.3766 8.44558V9.3698V9.36716ZM24.5692 9.36716V8.44558C24.5692 5.29267 22.0369 2.76559 18.9544 2.76559C15.8718 2.76559 13.3395 5.29267 13.3395 8.44558V9.3698H24.5692V9.36716ZM33.4042 29.0134C33.5322 28.8824 33.6871 28.777 33.8596 28.7037C34.032 28.6304 34.2184 28.5907 34.4076 28.5868C34.5968 28.583 34.7848 28.6152 34.9605 28.6815C35.1361 28.7478 35.2956 28.8468 35.4295 28.9726C35.5634 29.0984 35.6689 29.2483 35.7397 29.4134C35.8104 29.5785 35.8449 29.7553 35.8411 29.9333C35.8373 30.1112 35.7953 30.2866 35.7176 30.4489C35.6399 30.6112 35.5282 30.7571 35.389 30.8777L29.7742 36.1589C29.5109 36.4065 29.154 36.5455 28.7818 36.5455C28.4095 36.5455 28.0526 36.4065 27.7893 36.1589L22.1745 30.8777C22.0404 30.7559 21.9335 30.6102 21.8599 30.4491C21.7864 30.288 21.7476 30.1148 21.746 29.9395C21.7444 29.7642 21.7799 29.5903 21.8505 29.428C21.9211 29.2658 22.0253 29.1184 22.1571 28.9944C22.2889 28.8704 22.4456 28.7724 22.6181 28.706C22.7906 28.6396 22.9755 28.6062 23.1619 28.6077C23.3482 28.6093 23.5324 28.6457 23.7037 28.7149C23.875 28.7841 24.0298 28.8847 24.1593 29.0108L27.3766 32.0396V22.5703C27.3766 22.2201 27.5245 21.8843 27.7878 21.6367C28.051 21.3891 28.4081 21.25 28.7803 21.25C29.1526 21.25 29.5097 21.3891 29.7729 21.6367C30.0362 21.8843 30.1841 22.2201 30.1841 22.5703V32.0396L33.4042 29.0108V29.0134Z" fill="#2065D1"/>
</svg>
