<svg width="21" height="21" viewBox="0 0 21 21" fill="none" xmlns="http://www.w3.org/2000/svg">
<path d="M19.5 17.7221V10.7652C19.5001 10.2812 19.4001 9.80228 19.2062 9.35777C19.0122 8.91327 18.7285 8.51255 18.3723 8.18015L11.7366 1.98597C11.4024 1.67389 10.9599 1.5 10.5 1.5C10.0401 1.5 9.59761 1.67389 9.2634 1.98597L2.6277 8.18015C2.2715 8.51255 1.98776 8.91327 1.79385 9.35777C1.59994 9.80228 1.49995 10.2812 1.5 10.7652V17.7221C1.5 18.1936 1.68964 18.6458 2.02721 18.9793C2.36477 19.3127 2.82261 19.5 3.3 19.5H17.7C18.1774 19.5 18.6352 19.3127 18.9728 18.9793C19.3104 18.6458 19.5 18.1936 19.5 17.7221Z" stroke="white" stroke-width="1.8" stroke-linecap="round" stroke-linejoin="round"/>
</svg>
