<svg width="20" height="20" viewBox="0 0 20 20" fill="none" xmlns="http://www.w3.org/2000/svg">
<path d="M11.8 4.90115V3.03924C11.8 2.75717 11.7483 2.47817 11.6483 2.21988C11.5482 1.96158 11.402 1.72961 11.2188 1.53862C11.0356 1.34763 10.8194 1.20178 10.5839 1.11028C10.3484 1.01878 10.0987 0.983625 9.8506 1.00704L2.6506 1.68614C2.20065 1.72859 1.78121 1.96109 1.47547 2.33751C1.16973 2.71393 1.00002 3.20679 1 3.71833V16.2806C1.00002 16.7922 1.16973 17.2851 1.47547 17.6615C1.78121 18.0379 2.20065 18.2704 2.6506 18.3128L9.8506 18.993C10.0988 19.0164 10.3485 18.9812 10.5841 18.8896C10.8197 18.7981 11.0359 18.6521 11.2191 18.461C11.4023 18.2699 11.5486 18.0378 11.6486 17.7794C11.7485 17.521 11.8001 17.2419 11.8 16.9597V15.0978M10.9 9.99949H19H10.9ZM19 9.99949L16.0003 5.92082L19 9.99949ZM19 9.99949L16.0003 14.0782L19 9.99949Z" stroke="#87888C" stroke-width="1.8" stroke-linecap="round" stroke-linejoin="round"/>
</svg>
